<svg xmlns="http://www.w3.org/2000/svg" viewBox="0 0 640 480"><path d="M50.368 169.152c15.616 8.384 231.936 124.608 240 128.928s18.496 6.368 28.992 6.368c10.496 0 20.928-2.048 28.992-6.368s224.384-120.544 240-128.928C604 160.736 618.784 128 590.08 128H48.672c-28.704 0-13.92 32.736 1.696 41.152zm545.248 70.496c-17.76 9.248-236.384 123.168-247.264 128.864s-18.496 6.368-28.992 6.368-18.112-.672-28.992-6.368S62.112 248.864 44.352 239.616C31.872 233.088 32 240.736 32 246.624V480c0 13.44 18.112 32 32 32h512c13.888 0 32-18.56 32-32V246.656c0-5.888.128-13.536-12.384-7.008z"></path></svg>
